<svg xmlns="http://www.w3.org/2000/svg" viewBox="0 0 336.86 266.64"><path fill="#687a00" d="M122.07 160.1c6.33-6.36 11.95-12.03 17.6-17.69C185.63 96.44 231.59 50.47 277.56 4.5c5.96-5.96 8.86-5.99 14.73-.13 13.53 13.52 27.05 27.05 40.57 40.58 5.3 5.3 5.33 8.76.14 13.95-67.88 67.9-135.76 135.8-203.65 203.69-5.43 5.43-8.68 5.39-14.21-.14-37.03-37.04-74.07-74.08-111.1-111.12-5.35-5.35-5.38-8.68-.12-13.95 13.7-13.71 27.4-27.41 41.1-41.11 5.29-5.29 8.58-5.28 13.96.09 20.07 20.06 40.14 40.13 60.18 60.22.97.97 1.75 2.11 2.91 3.52Z"/></svg>
