<svg data-name="Layer 1" xmlns="http://www.w3.org/2000/svg" viewBox="0 0 203.71 86.95"><path d="M203.71.34c-1.38 1-2.81 2-4.12 3.12q-8.25 7-16.44 14.05c-3.59 3.08-7.12 6.24-10.72 9.32-4.36 3.73-8.78 7.39-13.14 11.13-3.68 3.16-7.28 6.4-11 9.56-4.35 3.74-8.76 7.41-13.13 11.14-2.7 2.3-5.35 4.67-8 7-3.68 3.15-7.39 6.25-11.06 9.4-2.7 2.31-5.37 4.65-8 7-1.82 1.59-3.62 3.22-5.5 4.75a1.47 1.47 0 0 1-1.41 0c-3.44-2.9-6.82-5.89-10.25-8.82-4.36-3.73-8.78-7.39-13.14-11.13-3.68-3.15-7.28-6.4-11-9.56-4.37-3.79-8.8-7.46-13.15-11.19-2.7-2.3-5.35-4.67-8-7-3.68-3.14-7.39-6.25-11.06-9.4-2.7-2.31-5.35-4.67-8-7-3.68-3.15-7.38-6.26-11.07-9.4-2.57-2.2-5.12-4.42-7.68-6.63L0 0h203.71Z"/></svg>