<?xml version="1.0" encoding="UTF-8"?> <svg xmlns="http://www.w3.org/2000/svg" data-name="Layer 1" viewBox="0 0 120 120"><defs><mask id="a" x="0" y="0" width="120" height="120" maskUnits="userSpaceOnUse"><rect width="120" height="120" rx="28" fill="#fff"></rect></mask></defs><rect data-name="a" width="120" height="120" rx="28" fill="none"></rect><g mask="url(#a)"><path d="M85 33.85L62 15.5a3.47 3.47 0 00-3.9 0L16.53 48.57A1.5 1.5 0 0017 51.5h8V93a4 4 0 004 4h62a4 4 0 004-4V51.5h8a1.5 1.5 0 001.5-1.5 1.51 1.51 0 00-1-1.43L95 41.82V28a2 2 0 00-2-2h-6a2 2 0 00-2 2z" fill="#1c1c1a" fill-rule="evenodd"></path></g></svg> 