<svg width="51" height="51" viewBox="0 0 51 51" fill="none" xmlns="http://www.w3.org/2000/svg">
<circle cx="25.5" cy="25.5" r="25.5" fill="#C8102E"/>
<path d="M21.6 28.672V7.648H28.272V28.672H21.6ZM21.744 39.136C20.912 38.272 20.496 37.232 20.496 36.016C20.496 34.8 20.912 33.776 21.744 32.944C22.608 32.08 23.648 31.648 24.864 31.648C26.08 31.648 27.104 32.08 27.936 32.944C28.8 33.776 29.232 34.8 29.232 36.016C29.232 37.232 28.8 38.272 27.936 39.136C27.104 39.968 26.08 40.384 24.864 40.384C23.648 40.384 22.608 39.968 21.744 39.136Z" fill="white"/>
</svg>
