<svg width="19" height="39" viewBox="0 0 19 39" fill="none" xmlns="http://www.w3.org/2000/svg">
<path d="M16.164 5.816V11C14.22 9.872 12.204 9.308 10.116 9.308C9.18 9.308 8.46 9.5 7.956 9.884C7.476 10.268 7.236 10.76 7.236 11.36C7.236 11.96 7.536 12.5 8.136 12.98C8.736 13.436 9.636 13.928 10.836 14.456C11.58 14.792 12.192 15.092 12.672 15.356C13.176 15.596 13.74 15.944 14.364 16.4C15.012 16.832 15.516 17.3 15.876 17.804C16.26 18.284 16.584 18.884 16.848 19.604C17.112 20.324 17.244 21.104 17.244 21.944C17.244 23.768 16.656 25.316 15.48 26.588C14.328 27.86 12.756 28.688 10.764 29.072V33.248H6.408V29.18C4.416 28.988 2.76 28.52 1.44 27.776V22.196C3.624 23.78 5.952 24.572 8.424 24.572C9.264 24.572 9.96 24.356 10.512 23.924C11.064 23.468 11.34 22.88 11.34 22.16C11.34 21.92 11.304 21.692 11.232 21.476C11.16 21.26 11.028 21.056 10.836 20.864C10.644 20.672 10.452 20.516 10.26 20.396C10.092 20.252 9.828 20.096 9.468 19.928C9.132 19.736 8.844 19.58 8.604 19.46C8.364 19.34 8.004 19.172 7.524 18.956C7.068 18.74 6.696 18.572 6.408 18.452C4.848 17.732 3.588 16.844 2.628 15.788C1.692 14.732 1.224 13.328 1.224 11.576C1.224 9.728 1.836 8.192 3.06 6.968C4.284 5.72 5.988 4.964 8.172 4.7V0.559999H12.564V4.772C13.836 4.964 15.036 5.312 16.164 5.816Z" fill="#6f7069"/>
</svg>
