<svg width="700pt" height="700pt" viewBox="0 0 700 700" xmlns="http://www.w3.org/2000/svg" xmlns:xlink="http://www.w3.org/1999/xlink"><defs><symbol id="a" overflow="visible"><path d="M34.641-2.078A24.418 24.418 0 0 1 29.063.016 25.31 25.31 0 0 1 23 .734c-6.273 0-11.246-1.753-14.922-5.265-3.668-3.508-5.5-8.27-5.5-14.281 0-6.031 1.832-10.801 5.5-14.312C11.754-36.632 16.727-38.39 23-38.39c2.102 0 4.125.242 6.063.719a24.598 24.598 0 0 1 5.578 2.094v7.797c-1.793-1.227-3.57-2.13-5.328-2.703a17.74 17.74 0 0 0-5.531-.86c-3.461 0-6.184 1.117-8.172 3.344-1.992 2.219-2.985 5.281-2.985 9.188 0 3.886.993 6.945 2.985 9.171 1.988 2.22 4.71 3.329 8.172 3.329 1.937 0 3.78-.286 5.53-.86 1.759-.57 3.536-1.473 5.329-2.703z"/></symbol><symbol id="b" overflow="visible"><path d="M25.359-20.578a11.543 11.543 0 0 0-2.375-.828 10.737 10.737 0 0 0-2.36-.266c-2.324 0-4.109.746-5.359 2.235-1.25 1.492-1.875 3.625-1.875 6.406v13.03H4.343v-28.28h9.047v4.64c1.156-1.851 2.485-3.203 3.985-4.046 1.507-.852 3.316-1.282 5.422-1.282.312 0 .64.016.984.047.351.024.867.074 1.547.156z"/></symbol><symbol id="c" overflow="visible"><path d="M32.578-14.219v2.578H11.437c.219 2.125.984 3.719 2.297 4.781 1.312 1.055 3.148 1.578 5.516 1.578 1.894 0 3.835-.28 5.828-.843 2-.563 4.05-1.414 6.156-2.563v6.969A37.889 37.889 0 0 1 24.812.109a33.618 33.618 0 0 1-6.406.625c-5.117 0-9.094-1.3-11.938-3.906-2.836-2.602-4.25-6.25-4.25-10.938 0-4.613 1.39-8.242 4.172-10.891 2.789-2.645 6.629-3.969 11.516-3.969 4.445 0 8.004 1.34 10.672 4.016 2.664 2.68 4 6.257 4 10.734zm-9.297-3c0-1.719-.5-3.102-1.5-4.156-1-1.051-2.308-1.578-3.922-1.578-1.75 0-3.18.496-4.281 1.484-1.094.98-1.773 2.399-2.031 4.25z"/></symbol><symbol id="d" overflow="visible"><path d="M17.016-12.734c-1.887 0-3.305.324-4.25.969-.95.636-1.422 1.578-1.422 2.828 0 1.148.379 2.043 1.14 2.687.77.649 1.837.97 3.204.97 1.695 0 3.125-.61 4.281-1.829 1.164-1.219 1.75-2.742 1.75-4.578v-1.047zm13.812-3.406V0h-9.11v-4.187c-1.21 1.72-2.574 2.97-4.093 3.75C16.113.345 14.269.735 12.094.735c-2.93 0-5.309-.851-7.141-2.562-1.824-1.707-2.734-3.926-2.734-6.657 0-3.312 1.14-5.742 3.421-7.296 2.282-1.551 5.864-2.329 10.75-2.329h5.329v-.703c0-1.425-.57-2.472-1.704-3.14-1.125-.664-2.882-1-5.265-1-1.938 0-3.742.195-5.406.578a18.118 18.118 0 0 0-4.64 1.75v-6.906a51.294 51.294 0 0 1 5.812-1.063 46.303 46.303 0 0 1 5.875-.375c5.101 0 8.785 1.008 11.047 3.016 2.257 2.011 3.39 5.281 3.39 9.812z"/></symbol><symbol id="e" overflow="visible"><path d="M14.219-36.312v8.031h9.313v6.469h-9.313v11.984c0 1.313.258 2.203.781 2.672.52.46 1.555.687 3.11.687h4.64v6.47H15c-3.574 0-6.105-.743-7.594-2.235-1.492-1.488-2.234-4.02-2.234-7.594v-11.984H.688v-6.469h4.484v-8.031z"/></symbol><symbol id="f" overflow="visible"><path d="M23.594-24.141v-15.156h9.078V0h-9.078v-4.094c-1.25 1.668-2.625 2.89-4.125 3.672-1.5.77-3.234 1.156-5.203 1.156-3.48 0-6.34-1.383-8.578-4.156-2.242-2.77-3.36-6.332-3.36-10.688 0-4.363 1.118-7.93 3.36-10.703 2.238-2.77 5.098-4.156 8.578-4.156 1.957 0 3.687.398 5.187 1.187 1.508.782 2.891 1.997 4.141 3.641zM17.625-5.829c1.938 0 3.414-.707 4.438-2.125 1.02-1.414 1.53-3.469 1.53-6.156 0-2.695-.51-4.754-1.53-6.172-1.024-1.414-2.5-2.125-4.438-2.125-1.918 0-3.387.71-4.406 2.125-1.023 1.418-1.531 3.477-1.531 6.172 0 2.687.508 4.742 1.531 6.156 1.02 1.418 2.488 2.125 4.406 2.125z"/></symbol><symbol id="g" overflow="visible"><path d="M19.391-5.828c1.938 0 3.414-.707 4.438-2.125 1.019-1.414 1.53-3.469 1.53-6.156 0-2.696-.511-4.754-1.53-6.172-1.024-1.414-2.5-2.125-4.438-2.125s-3.422.715-4.453 2.14c-1.031 1.43-1.547 3.48-1.547 6.157 0 2.68.516 4.73 1.547 6.156 1.031 1.418 2.515 2.125 4.453 2.125zm-6-18.312c1.238-1.645 2.613-2.86 4.125-3.64 1.52-.79 3.266-1.188 5.234-1.188 3.489 0 6.352 1.387 8.594 4.156 2.238 2.773 3.36 6.34 3.36 10.703 0 4.356-1.121 7.918-3.36 10.688C29.102-.648 26.24.735 22.75.735c-1.968 0-3.714-.39-5.234-1.172-1.512-.78-2.887-2-4.125-3.656V.001H4.344v-39.297h9.047z"/></symbol><symbol id="h" overflow="visible"><path d="M.625-28.281h9.047l7.594 19.188 6.469-19.188h9.046L20.891 2.672c-1.2 3.156-2.594 5.36-4.188 6.61s-3.695 1.874-6.297 1.874H5.172V5.235H8c1.53 0 2.644-.247 3.344-.735.707-.492 1.253-1.367 1.64-2.625l.25-.797z"/></symbol><symbol id="i" overflow="visible"><path d="M.25-37.703H35v7.344H22.5V0h-9.719v-30.36H.251z"/></symbol><symbol id="j" overflow="visible"><path d="M32.781-17.219V0h-9.094v-13.188c0-2.438-.058-4.117-.172-5.047-.105-.926-.293-1.61-.562-2.047a3.728 3.728 0 0 0-1.438-1.36c-.605-.331-1.297-.5-2.078-.5-1.886 0-3.367.731-4.437 2.188-1.074 1.45-1.61 3.461-1.61 6.031V0H4.343v-28.28h9.047v4.14c1.364-1.644 2.813-2.86 4.344-3.64 1.531-.79 3.219-1.188 5.063-1.188 3.27 0 5.75 1.008 7.437 3.016 1.695 2 2.547 4.914 2.547 8.734z"/></symbol><symbol id="k" overflow="visible"><path d="M23.594-4.797c-1.25 1.648-2.625 2.86-4.125 3.64C17.969-.382 16.235 0 14.266 0c-3.45 0-6.305-1.36-8.563-4.078-2.25-2.719-3.375-6.18-3.375-10.391 0-4.227 1.125-7.692 3.375-10.391 2.258-2.707 5.114-4.063 8.563-4.063 1.969 0 3.703.39 5.203 1.172 1.5.774 2.875 1.992 4.125 3.656v-4.187h9.078V-2.86c0 4.55-1.437 8.023-4.312 10.422-2.868 2.394-7.024 3.594-12.47 3.594-1.773 0-3.484-.137-5.14-.407a30.373 30.373 0 0 1-4.969-1.234V2.468c1.582.914 3.13 1.594 4.64 2.031 1.52.446 3.048.672 4.579.672 2.957 0 5.129-.652 6.516-1.953 1.382-1.293 2.078-3.316 2.078-6.078zm-5.969-17.609c-1.867 0-3.324.695-4.375 2.078-1.043 1.375-1.562 3.328-1.562 5.86 0 2.593.504 4.562 1.515 5.906 1.008 1.336 2.485 2 4.422 2 1.883 0 3.348-.688 4.39-2.063 1.052-1.383 1.579-3.332 1.579-5.844 0-2.53-.527-4.484-1.578-5.859-1.043-1.383-2.508-2.078-4.39-2.078z"/></symbol><symbol id="l" overflow="visible"><path d="M4.047-11.016v-17.266h9.078v2.828c0 1.531-.012 3.453-.031 5.766-.012 2.312-.016 3.86-.016 4.64 0 2.274.055 3.907.172 4.907.125 1 .328 1.73.61 2.187.374.586.859 1.04 1.452 1.36.602.324 1.29.484 2.063.484 1.883 0 3.363-.723 4.437-2.172 1.082-1.445 1.625-3.457 1.625-6.031v-13.97h9.032V0h-9.032v-4.094C22.07-2.44 20.625-1.22 19.094-.44 17.57.342 15.894.733 14.062.733c-3.261 0-5.746-1-7.453-3-1.71-2.008-2.562-4.926-2.562-8.75z"/></symbol><symbol id="m" overflow="visible"><path d="M4.75-37.703h9.719v13.766l14.016-13.766h11.297L21.61-19.844 41.64 0H29.47l-15-14.844V0H4.75z"/></symbol><symbol id="n" overflow="visible"><path d="M4.344-39.297h9.047V0H4.344z"/></symbol></defs><path d="M400.58 130.23c-5.71 0-10.34 4.629-10.34 10.344v139.43a10.345 10.345 0 0 0 10.34 10.344h92.164c5.71 0 10.344-4.633 10.344-10.344s-4.633-10.344-10.344-10.344h-81.82V140.57c0-2.746-1.09-5.375-3.027-7.317a10.355 10.355 0 0 0-7.317-3.027z"/><path d="M400.58 0a280.309 280.309 0 0 0-197.9 82.102 280.323 280.323 0 0 0-82.102 197.9v76.129l-83.469-83.473c-4.059-4.055-10.633-4.055-14.691 0-4.055 4.055-4.055 10.633 0 14.688l101.16 101.16a10.346 10.346 0 0 0 14.688 0l101.16-101.16a10.344 10.344 0 0 0-14.582-14.586l-83.473 83.473v-76.23c-.043-60.738 21.238-119.56 60.129-166.21s92.926-78.176 152.68-89.066a259.3 259.3 0 0 1 289.2 163.761 259.352 259.352 0 0 1 2.152 176.75 259.253 259.253 0 0 1-111.61 137.06 259.315 259.315 0 0 1-328.32-51.625c-3.774-4.312-10.324-4.754-14.637-.98-4.313 3.77-4.754 10.32-.985 14.633a280.007 280.007 0 0 0 465.78-68.664 280.042 280.042 0 0 0 16.98-182.2 280.031 280.031 0 0 0-99.18-153.78A279.991 279.991 0 0 0 400.58-.002z"/><use x="19.422" y="715.152" xlink:href="#a"/><use x="57.375" y="715.152" xlink:href="#b"/><use x="82.879" y="715.152" xlink:href="#c"/><use x="117.957" y="715.152" xlink:href="#d"/><use x="152.855" y="715.152" xlink:href="#e"/><use x="177.578" y="715.152" xlink:href="#c"/><use x="212.656" y="715.152" xlink:href="#f"/><use x="267.68" y="715.152" xlink:href="#g"/><use x="304.699" y="715.152" xlink:href="#h"/><use x="356.418" y="715.152" xlink:href="#i"/><use x="391.695" y="715.152" xlink:href="#d"/><use x="426.598" y="715.152" xlink:href="#j"/><use x="463.414" y="715.152" xlink:href="#k"/><use x="500.438" y="715.152" xlink:href="#l"/><use x="537.254" y="715.152" xlink:href="#h"/><use x="588.973" y="715.152" xlink:href="#m"/><use x="629.047" y="715.152" xlink:href="#b"/><use x="654.555" y="715.152" xlink:href="#n"/></svg>