<svg xmlns="http://www.w3.org/2000/svg" viewBox="0 0 384 384"><path fill="#2f2f2f" d="M22 146.82c1.71-5.79 5.58-10.11 9.5-14.47 15.81-17.62 31.54-35.31 47.3-52.98.81-.91 1.6-1.83 2.43-2.72 3.87-4.15 8.85-4.71 12.63-1.43 3.79 3.29 3.99 8.42.29 12.69-4.41 5.1-8.96 10.09-13.45 15.13-10.9 12.22-21.8 24.43-32.69 36.66-.48.54-.87 1.17-1.72 2.31h4.39c74.67 0 149.35.07 224.02-.04 30.27-.04 54.42 11.8 72.13 36.36 8.24 11.42 12.94 24.32 14.55 38.32.1.86.4 1.71.61 2.56v14.61c-1.53 6.65-2.53 13.47-4.68 19.91-11.27 33.76-43.26 56.83-78.8 57.1-13.61.1-27.22.04-40.83.01-5.63-.01-9.47-3.4-9.62-8.37-.15-4.99 3.85-8.79 9.55-8.82 13.17-.06 26.33 0 39.5-.03 39.61-.08 70.11-32.71 67.53-72.24-2.15-33.07-29.87-60.39-62.99-62.06-2.43-.12-4.86-.19-7.3-.19H46c3.82 4.31 7.01 7.92 10.21 11.52 12.52 14.04 25.03 28.08 37.57 42.1 2.01 2.24 3.38 4.68 2.91 7.78-.52 3.47-2.46 5.97-5.82 7-3.59 1.1-6.77.16-9.31-2.69-8.25-9.24-16.51-18.48-24.76-27.73-9.21-10.32-18.58-20.5-27.53-31.03-2.99-3.52-4.9-7.96-7.31-11.97v-7.31Z"/></svg>
