<svg xmlns="http://www.w3.org/2000/svg" viewBox="0 0 341 336"><path fill="currentColor" d="M171.2 6.1c77.9-1.3 160 65 159.3 160-.7 92-77.6 160.9-164.8 161C84.2 327.1 5.9 260 6.4 169.5 7 67.2 89.6 5.1 171.2 6.1zm-79.8 250c.7-1 .9-1.1.9-1.2.1-1 .1-2 .2-3 1.5-13 6.3-23.9 19.4-29 6.1-2.3 11.9-.8 15.4 3.6 3.7 4.6 3.6 9.9.3 15.7-.8 1.4-1 3.9-.3 5.3 4 8.6 10.6 14.8 19.3 18.6 21.5 9.5 43.5 10.6 65.7 3.3 51.9-17.2 87.4-51.2 105.3-103.2 3.8-11 4.4-22 2-33.4C304.4 62.2 241.2 14.3 173.5 13 123.1 12 81.3 31.2 49 69.9 21.4 103 12 141.8 15.1 184.2c.3 3.7 1.1 7.3 1.6 10.4 5.8-12.9 10.9-26.1 17.7-38.4 10.2-18.7 25-32.7 45.3-40.3 14.7-5.5 29.5-6.7 44 .8 6.5 3.4 11 8.6 12.8 15.8 1.5 5.9-1.2 12.4-6.3 15.7-4.4 2.8-9.4 3.1-13-.3-5.5-5.2-10.4-3-15.2.1-9.7 6.3-15.9 15.5-20.2 26-5.1 12.7-5.8 26-4.7 39.3 1.1 15.2 6.8 29 14.3 42.8zm20.9-10.8c-.2 2.4-.8 4.8-.7 7.2.6 11.1 6.7 18.9 15.4 24.9 12.2 8.5 26.3 11.9 40.8 13.6 31.2 3.7 61.4-1.7 90.3-13.3 18.5-7.4 35.3-17.5 44.8-36.2 4.2-8.3 8.2-16.7 11.7-25.3 2.8-7 4.6-14.5 6.8-21.8-.5-.2-.9-.3-1.4-.5-1.5 2.5-3.1 5-4.6 7.6-1.7 2.7-3.2 5.5-5 8-28.3 39.2-67.1 62.3-114.4 68.6-29.4 3.9-57.4-2.1-73.7-31.1-3.1-.6-6.2-1-10-1.7zm-1.3 63.1l.9-1.2c-16-18-26.2-39.2-34.1-61.6-8.2-23.1-9.5-46.6-1.7-70 5.6-16.6 14.6-30.7 33-35.9.8-.2 1.6-1.4 2-2.4 1.2-2.9 2.1-5.9 3.4-8.7 1.7-3.7.2-6.7-3.9-6.9-1.5-.1-3 .2-4.4.6-22.8 5.7-36.4 21.3-44.2 42.4-6.5 17.7-5.7 36.2-2.6 54.2 5.3 30.6 20.3 56.7 40.4 80 3.2 3.7 7.5 6.4 11.2 9.5zm-3.4-64.4c-.9 2.3-2.3 4.6-2.6 7-1.2 8.5-.1 16.6 4.6 24 6 9.5 13.7 17.5 24.1 21.8 11.1 4.7 22.6 8.9 34.3 11.7 24.2 5.9 48.4 7.7 71-6.5 9.8-6.2 19.4-12.5 29.1-18.7-.2-.4-.5-.9-.7-1.3-.6.1-1.3.1-1.8.3-22.7 8.6-46.3 13.3-70.5 14.9-20 1.4-39.6-.6-58.2-8.6-21.8-9.2-29.9-22.1-29.3-44.6zm-4.3-125.3c-1.6.1-2.8 0-3.8.3-18.6 5.3-33.9 15-43.9 32.2-10.5 18-13.2 37.7-13.1 58.1.1 22.3 4.5 43.2 16.1 62.5 5.6 9.4 13.7 15.7 23.2 21.2 0-.9.1-1.3 0-1.6-.8-1.5-1.6-2.9-2.5-4.3-19.7-32.5-30-67.3-26.1-105.6 2.2-20.9 10.3-39 28.2-51.2 6.6-4.4 14.2-7.5 21.9-11.6zm-13.7.6c-.9-.3-1.3-.5-1.6-.4-.8.1-1.7.2-2.4.4-11.5 3.6-21.8 9.3-30 18.1-22.3 24.1-31.2 52.9-28.7 85.3.9 12.2 7.6 21.9 14.6 31.4.3-.8.2-1.4.1-2-5.3-23.8-6.5-47.8-1.4-71.8 4.8-22.6 14.5-42.2 35.6-54 4.3-2.4 8.8-4.5 13.8-7zm87.9 200.9c0-.7.1-1.3.1-2-5.4-1.5-10.9-2.9-16.3-4.5-17.7-5.2-34.5-12.1-47.5-25.9-9.7-10.3-15-21.9-11.8-36.3.1-.5-.2-1-.3-1.9-5.7 7.9-6.1 16.8-1 27.3 11 23.1 28.8 37.4 54.4 41 7.4 1.1 14.9 1.6 22.4 2.3z"/><path d="M241.3 62.9c22.3 0 40.1 17.5 40.2 39.7.2 21.9-18 40.1-40.1 40.1s-40.2-17.9-40.3-39.9c0-22 18-39.9 40.2-39.9zM90.1 242.5c-1.9-14 .5-27.1 8.3-38.9 5.3-8.1 12.8-13 22.9-12.5 9.6.5 15.1 9.6 11.2 18.2-3 6.5-12.3 8-17.2 2.6-4.3-4.7-6.9-5-11.5-.4-7.2 7.3-11.3 16.3-13.1 26.3-.1 1.7-.3 3.2-.6 4.7zM127 112.6c16.3-.6 32.7 10.3 36.3 24.1 2.3 8.8-.6 16.5-7.4 19.7-5.9 2.8-12.5 1-15.8-4.3-3.6-5.7-2.3-13 3.1-16.9 5.8-4.3 6.2-6.4.6-11-5.1-4.4-11-7.8-16.8-11.6z"/><path d="M165 153.2c.1 11.3-5.7 19.4-14.9 25.1-8.4 5.2-17.3 5.5-26 .7-5.2-2.8-8-7.4-7.9-13.4.2-7 5.7-11.9 12.9-11.4 7 .4 10.6 5 9.8 12.5-.4 4.5 1.3 6.2 5.9 5.1 10.1-2.6 16-9.6 20.2-18.6zM131.9 191.1c15.1 1.3 28.9 19.7 25.7 33.6-1.6 7.1-7.4 12.1-13.8 12.1-6.9 0-11.8-4.4-12.3-11.1-.6-7.1 3-11.3 10.5-12.3 4.3-.6 5.4-2.5 3.7-7-2-5.3-5.6-9.4-13.8-15.3z"/></svg>