<svg width="455" height="448" viewBox="0 0 455 448" fill="none" xmlns="http://www.w3.org/2000/svg">
<path d="M228.434 8.13344C332.377 6.40011 441.924 94.8001 440.99 221.467C440.056 344.133 337.447 436 221.095 436.133C112.349 436.133 7.8724 346.667 8.53956 226C9.34014 89.6001 119.554 6.80011 228.434 8.13344ZM121.956 341.467C122.89 340.133 123.157 340 123.157 339.867C123.29 338.533 123.29 337.2 123.424 335.867C125.425 318.533 131.83 304 149.309 297.2C157.449 294.133 165.188 296.133 169.858 302C174.795 308.133 174.661 315.2 170.258 322.933C169.191 324.8 168.924 328.133 169.858 330C175.195 341.467 184.001 349.733 195.61 354.8C224.298 367.467 253.652 368.933 283.274 359.2C352.525 336.267 399.893 290.933 423.777 221.6C428.847 206.933 429.648 192.267 426.446 177.067C406.164 82.9335 321.836 19.0668 231.503 17.3334C164.254 16.0001 108.479 41.6001 65.3812 93.2001C28.5542 137.333 16.0117 189.067 20.1481 245.6C20.5484 250.533 21.6158 255.333 22.283 259.467C30.022 242.267 36.8269 224.667 45.9003 208.267C59.5102 183.333 79.258 164.667 106.345 154.533C125.959 147.2 145.707 145.6 165.054 155.6C173.727 160.133 179.732 167.067 182.133 176.667C184.135 184.533 180.532 193.2 173.727 197.6C167.856 201.333 161.185 201.733 156.381 197.2C149.042 190.267 142.504 193.2 136.1 197.333C123.157 205.733 114.884 218 109.147 232C102.342 248.933 101.408 266.667 102.875 284.4C104.343 304.667 111.949 323.067 121.956 341.467ZM149.843 327.067C149.576 330.267 148.776 333.467 148.909 336.667C149.71 351.467 157.849 361.867 169.457 369.867C185.736 381.2 204.55 385.733 223.897 388C265.528 392.933 305.824 385.733 344.386 370.267C369.07 360.4 391.487 346.933 404.163 322C409.767 310.933 415.104 299.733 419.774 288.267C423.51 278.933 425.912 268.933 428.847 259.2C428.18 258.933 427.647 258.8 426.979 258.533C424.978 261.867 422.843 265.2 420.842 268.667C418.573 272.267 416.572 276 414.17 279.333C376.409 331.6 324.638 362.4 261.525 370.8C222.296 376 184.935 368 163.186 329.333C159.05 328.533 154.913 328 149.843 327.067ZM148.108 411.2L149.309 409.6C127.96 385.6 114.35 357.333 103.809 327.467C92.868 296.667 91.1334 265.333 101.541 234.133C109.013 212 121.022 193.2 145.573 186.267C146.641 186 147.708 184.4 148.242 183.067C149.843 179.2 151.044 175.2 152.779 171.467C155.047 166.533 153.045 162.533 147.575 162.267C145.573 162.133 143.572 162.533 141.704 163.067C111.281 170.667 93.1349 191.467 82.7272 219.6C74.0542 243.2 75.1217 267.867 79.258 291.867C86.3299 332.667 106.345 367.467 133.164 398.533C137.434 403.467 143.172 407.067 148.108 411.2ZM143.572 325.333C142.371 328.4 140.503 331.467 140.103 334.667C138.501 346 139.969 356.8 146.24 366.667C154.246 379.333 164.52 390 178.397 395.733C193.208 402 208.553 407.6 224.164 411.333C256.455 419.2 288.745 421.6 318.9 402.667C331.976 394.4 344.786 386 357.729 377.733C357.462 377.2 357.062 376.533 356.795 376C355.994 376.133 355.06 376.133 354.393 376.4C324.104 387.867 292.614 394.133 260.324 396.267C233.638 398.133 207.485 395.467 182.667 384.8C153.579 372.533 142.771 355.333 143.572 325.333ZM137.834 158.267C135.699 158.4 134.098 158.267 132.764 158.667C107.946 165.733 87.5308 178.667 74.1876 201.6C60.1774 225.6 56.5747 251.867 56.7082 279.067C56.8416 308.8 62.7126 336.667 78.1906 362.4C85.6627 374.933 96.4706 383.333 109.147 390.667C109.147 389.467 109.28 388.933 109.147 388.533C108.079 386.533 107.012 384.667 105.811 382.8C79.5249 339.467 65.7815 293.067 70.9853 242C73.9208 214.133 84.7287 190 108.613 173.733C117.419 167.867 127.56 163.733 137.834 158.267ZM119.554 159.067C118.353 158.667 117.82 158.4 117.419 158.533C116.352 158.667 115.151 158.8 114.217 159.067C98.8724 163.867 85.129 171.467 74.1876 183.2C44.4325 215.333 32.5572 253.733 35.8929 296.933C37.0938 313.2 46.0337 326.133 55.3739 338.8C55.7742 337.733 55.6407 336.933 55.5073 336.133C48.4354 304.4 46.8343 272.4 53.6393 240.4C60.044 210.267 72.9868 184.133 101.141 168.4C106.878 165.2 112.883 162.4 119.554 159.067ZM236.84 426.933C236.84 426 236.974 425.2 236.974 424.267C229.768 422.267 222.43 420.4 215.224 418.267C191.607 411.333 169.191 402.133 151.845 383.733C138.902 370 131.83 354.533 136.1 335.333C136.233 334.667 135.833 334 135.699 332.8C128.094 343.333 127.56 355.2 134.365 369.2C149.042 400 172.793 419.067 206.952 423.867C216.825 425.333 226.833 426 236.84 426.933Z" fill="#FFFFFF" fill-opacity="0.3"/>
<path d="M321.969 83.8667C351.724 83.8667 375.475 107.2 375.609 136.8C375.875 166 351.591 190.267 322.103 190.267C292.614 190.267 268.463 166.4 268.33 137.067C268.33 107.733 292.348 83.8667 321.969 83.8667V83.8667ZM120.221 323.333C117.686 304.667 120.889 287.2 131.296 271.467C138.368 260.667 148.375 254.133 161.852 254.8C174.661 255.467 182 267.6 176.796 279.067C172.793 287.733 160.384 289.733 153.846 282.533C148.109 276.267 144.639 275.867 138.502 282C128.894 291.733 123.424 303.733 121.022 317.067C120.889 319.333 120.622 321.333 120.221 323.333V323.333ZM169.458 150.133C191.207 149.333 213.089 163.867 217.893 182.267C220.962 194 217.092 204.267 208.019 208.533C200.147 212.267 191.34 209.867 186.937 202.8C182.133 195.2 183.868 185.467 191.073 180.267C198.812 174.533 199.346 171.733 191.874 165.6C185.069 159.733 177.197 155.2 169.458 150.133V150.133Z" fill="#FFFFFF" fill-opacity="0.3"/>
<path d="M220.161 204.267C220.295 219.333 212.556 230.133 200.28 237.733C189.072 244.667 177.196 245.067 165.588 238.667C158.65 234.933 154.913 228.8 155.047 220.8C155.314 211.467 162.652 204.933 172.26 205.6C181.6 206.133 186.403 212.267 185.336 222.267C184.802 228.267 187.07 230.533 193.208 229.067C206.685 225.6 214.557 216.267 220.161 204.267V204.267ZM175.996 254.8C196.144 256.533 214.557 281.067 210.287 299.6C208.153 309.067 200.413 315.733 191.874 315.733C182.667 315.733 176.129 309.867 175.462 300.933C174.661 291.467 179.465 285.867 189.472 284.533C195.21 283.733 196.677 281.2 194.409 275.2C191.74 268.133 186.937 262.667 175.996 254.8V254.8Z" fill="#FFFFFF" fill-opacity="0.3"/>
</svg>
