<svg xmlns="http://www.w3.org/2000/svg" width="283" height="279" fill="none"><path fill="#1C1C1A" d="M0 0h283v279H0z"/><path fill="#F4F4F4" d="M142.081 5.065c64.65-1.08 132.786 53.974 132.205 132.858-.581 76.392-64.401 133.604-136.77 133.687-67.637 0-132.62-55.717-132.205-130.864C5.81 55.8 74.361 4.235 142.081 5.066Zm-66.227 207.59c.58-.831.747-.914.747-.997.083-.83.083-1.66.166-2.491 1.245-10.794 5.228-19.845 16.1-24.08 5.063-1.91 9.876-.664 12.781 2.989 3.07 3.82 2.987 8.221.249 13.037-.664 1.162-.83 3.238-.249 4.401 3.319 7.141 8.797 12.289 16.017 15.444 17.843 7.889 36.101 8.802 54.525 2.74 43.073-14.282 72.535-42.514 87.39-85.692 3.154-9.134 3.652-18.268 1.66-27.734-12.615-58.624-65.065-98.398-121.25-99.477-41.828-.83-76.518 15.112-103.324 47.247-22.906 27.485-30.707 59.703-28.134 94.91.249 3.072.913 6.062 1.328 8.636 4.813-10.712 9.046-21.673 14.689-31.886 8.465-15.528 20.748-27.153 37.595-33.463 12.2-4.567 24.482-5.564 36.516.664 5.395 2.823 9.129 7.141 10.623 13.12 1.245 4.899-.996 10.296-5.228 13.036-3.652 2.325-7.802 2.574-10.79-.249-4.564-4.318-8.63-2.491-12.614.083-8.05 5.231-13.196 12.871-16.764 21.589-4.233 10.546-4.814 21.59-3.9 32.633.912 12.622 5.643 24.081 11.867 35.54Zm17.345-8.968c-.166 1.993-.664 3.986-.58 5.978.497 9.217 5.56 15.694 12.78 20.676 10.125 7.058 21.827 9.882 33.86 11.293 25.893 3.072 50.957-1.411 74.941-11.044 15.354-6.144 29.296-14.531 37.18-30.059 3.486-6.891 6.806-13.867 9.71-21.008 2.324-5.812 3.818-12.04 5.644-18.101-.415-.166-.747-.249-1.162-.416-1.245 2.076-2.573 4.152-3.818 6.311-1.411 2.242-2.655 4.567-4.149 6.643-23.487 32.55-55.687 51.731-94.942 56.963-24.4 3.238-47.637-1.744-61.165-25.825-2.573-.498-5.145-.83-8.299-1.411Zm-1.079 52.395.747-.996c-13.279-14.946-21.744-32.55-28.3-51.15-6.805-19.181-7.884-38.695-1.41-58.125 4.647-13.784 12.116-25.492 27.386-29.81.664-.166 1.328-1.162 1.66-1.993.996-2.408 1.743-4.899 2.822-7.224 1.41-3.072.166-5.563-3.237-5.729-1.245-.083-2.49.166-3.651.498-18.922 4.733-30.21 17.686-36.682 35.207-5.395 14.697-4.731 30.059-2.158 45.005 4.398 25.409 16.847 47.082 33.528 66.429 2.656 3.072 6.224 5.314 9.295 7.888Zm-2.822-53.475c-.746 1.91-1.908 3.82-2.157 5.813-.996 7.058-.083 13.784 3.817 19.928 4.98 7.889 11.37 14.532 20.001 18.102 9.212 3.903 18.756 7.39 28.466 9.715 20.084 4.9 40.168 6.394 58.924-5.397 8.133-5.148 16.1-10.379 24.15-15.528-.166-.332-.415-.747-.581-1.079-.497.083-1.078.083-1.493.249-18.839 7.141-38.425 11.044-58.509 12.372-16.598 1.163-32.865-.498-48.301-7.141-18.092-7.639-24.814-18.351-24.316-37.034ZM85.73 98.564c-1.328.083-2.324 0-3.154.249-15.436 4.401-28.134 12.455-36.433 26.737-8.714 14.947-10.955 31.305-10.872 48.244.083 18.517 3.735 35.871 13.362 51.897 4.647 7.806 11.37 13.037 19.254 17.604 0-.747.083-1.08 0-1.329a50.107 50.107 0 0 0-2.075-3.57c-16.35-26.987-24.897-55.883-21.66-87.686 1.825-17.354 8.547-32.384 23.403-42.514 5.477-3.654 11.785-6.228 18.175-9.632Zm-11.37.498c-.747-.25-1.079-.415-1.328-.332-.664.083-1.41.166-1.992.332-9.544 2.989-18.092 7.722-24.897 15.029-18.507 20.012-25.893 43.926-23.818 70.83.747 10.13 6.307 18.185 12.116 26.073.25-.664.166-1.163.083-1.661-4.398-19.762-5.394-39.691-1.162-59.619 3.984-18.766 12.034-35.041 29.545-44.84 3.569-1.993 7.303-3.736 11.453-5.812ZM147.31 265.88c0-.582.083-1.08.083-1.661-4.481-1.246-9.046-2.408-13.527-3.737-14.69-4.318-28.632-10.047-39.421-21.506-8.05-8.553-12.449-18.185-9.793-30.142.083-.415-.166-.83-.249-1.578-4.73 6.56-5.062 13.95-.83 22.669 9.13 19.181 23.902 31.055 45.147 34.045 6.142.913 12.366 1.328 18.59 1.91Z"/><path fill="#F4F4F4" d="M200.258 52.23c18.507 0 33.279 14.53 33.362 32.965.166 18.184-14.938 33.297-33.279 33.297s-33.363-14.863-33.446-33.131c0-18.268 14.939-33.132 33.363-33.132ZM74.775 201.362c-1.577-11.625.415-22.503 6.888-32.301 4.399-6.726 10.623-10.795 19.005-10.38 7.967.415 12.532 7.972 9.295 15.113-2.489 5.397-10.208 6.643-14.274 2.159-3.569-3.903-5.726-4.152-9.544-.332-5.975 6.061-9.378 13.534-10.872 21.838a27.822 27.822 0 0 1-.498 3.903ZM105.4 93.498c13.527-.498 27.138 8.553 30.126 20.012 1.908 7.307-.498 13.701-6.142 16.358-4.896 2.325-10.374.83-13.112-3.571-2.988-4.733-1.909-10.794 2.572-14.033 4.814-3.57 5.146-5.314.498-9.134-4.232-3.653-9.129-6.476-13.942-9.632Z"/><path fill="#F4F4F4" d="M136.935 127.211c.083 9.383-4.73 16.109-12.365 20.842-6.971 4.318-14.358 4.567-21.578.581-4.316-2.325-6.64-6.144-6.556-11.127.166-5.812 4.73-9.881 10.706-9.466 5.809.332 8.797 4.152 8.133 10.38-.332 3.736 1.079 5.148 4.896 4.235 8.382-2.159 13.279-7.972 16.764-15.445Zm-27.47 31.47c12.532 1.08 23.985 16.359 21.329 27.9-1.328 5.896-6.141 10.048-11.453 10.048-5.726 0-9.793-3.654-10.208-9.217-.498-5.896 2.49-9.383 8.714-10.214 3.569-.498 4.482-2.075 3.071-5.812-1.66-4.401-4.647-7.805-11.453-12.705Z"/></svg>