<svg width="351" height="345" viewBox="0 0 351 345" fill="none" xmlns="http://www.w3.org/2000/svg">
<path d="M176.221 6.26339C256.405 4.92857 340.913 73.0045 340.192 170.549C339.472 265.013 260.317 335.759 170.559 335.862C86.6694 335.862 6.07324 266.964 6.5879 174.04C7.2055 69 92.2278 5.23661 176.221 6.26339ZM94.0806 262.96C94.8011 261.933 95.007 261.83 95.007 261.728C95.1099 260.701 95.1099 259.674 95.2128 258.647C96.7568 245.299 101.698 234.107 115.182 228.871C121.461 226.509 127.431 228.049 131.033 232.567C134.842 237.29 134.739 242.732 131.342 248.687C130.519 250.125 130.313 252.692 131.033 254.129C135.151 262.96 141.944 269.326 150.899 273.228C173.03 282.982 195.675 284.112 218.526 276.616C271.948 258.955 308.489 224.045 326.914 170.652C330.825 159.357 331.443 148.062 328.973 136.357C313.327 63.8661 248.274 14.683 178.588 13.3482C126.71 12.3214 83.6844 32.0357 50.4372 71.7723C22.0278 105.759 12.3521 145.598 15.543 189.134C15.8518 192.933 16.6753 196.629 17.19 199.812C23.16 186.567 28.4096 173.013 35.409 160.384C45.9081 141.183 61.1421 126.808 82.0375 119.004C97.1685 113.357 112.403 112.125 127.328 119.826C134.018 123.317 138.65 128.656 140.503 136.049C142.047 142.107 139.268 148.781 134.018 152.17C129.489 155.045 124.343 155.353 120.637 151.862C114.976 146.522 109.932 148.781 104.991 151.964C95.007 158.433 88.6251 167.879 84.199 178.661C78.9495 191.701 78.2289 205.357 79.3612 219.013C80.4935 234.621 86.3606 248.79 94.0806 262.96ZM115.593 251.871C115.388 254.335 114.77 256.799 114.873 259.263C115.491 270.661 121.769 278.67 130.725 284.83C143.282 293.558 157.796 297.049 172.721 298.795C204.836 302.594 235.922 297.049 265.669 285.138C284.712 277.54 302.004 267.17 311.783 247.969C316.106 239.446 320.223 230.821 323.826 221.991C326.708 214.804 328.561 207.103 330.825 199.607C330.311 199.402 329.899 199.299 329.384 199.094C327.84 201.661 326.193 204.228 324.649 206.897C322.9 209.67 321.356 212.545 319.503 215.112C290.373 255.362 250.435 279.08 201.748 285.549C171.486 289.554 142.665 283.393 125.887 253.616C122.696 253 119.505 252.589 115.593 251.871ZM114.255 316.661L115.182 315.429C98.7125 296.946 88.2134 275.179 80.0817 252.179C71.6413 228.46 70.3031 204.33 78.3319 180.304C84.0961 163.259 93.36 148.781 112.3 143.442C113.123 143.237 113.947 142.004 114.358 140.978C115.593 138 116.52 134.92 117.858 132.045C119.608 128.246 118.064 125.165 113.844 124.96C112.3 124.857 110.756 125.165 109.315 125.576C85.846 131.429 71.8471 147.446 63.8184 169.112C57.1278 187.286 57.9512 206.281 61.1422 224.763C66.5976 256.183 82.0375 282.982 102.727 306.906C106.021 310.705 110.447 313.478 114.255 316.661ZM110.756 250.536C109.829 252.897 108.388 255.259 108.079 257.723C106.844 266.451 107.976 274.768 112.814 282.366C118.99 292.121 126.916 300.335 137.621 304.75C149.047 309.576 160.884 313.888 172.927 316.763C197.837 322.821 222.746 324.67 246.009 310.089C256.096 303.723 265.978 297.254 275.962 290.888C275.757 290.478 275.448 289.964 275.242 289.554C274.624 289.656 273.904 289.656 273.389 289.862C250.023 298.692 225.731 303.518 200.822 305.161C180.235 306.598 160.06 304.545 140.915 296.33C118.476 286.884 110.138 273.638 110.756 250.536ZM106.33 121.879C104.683 121.982 103.447 121.879 102.418 122.187C83.2726 127.629 67.524 137.589 57.2307 155.25C46.4228 173.732 43.6436 193.96 43.7466 214.906C43.8495 237.804 48.3785 259.263 60.3187 279.08C66.0829 288.732 74.4204 295.201 84.199 300.848C84.199 299.924 84.302 299.513 84.199 299.205C83.3756 297.665 82.5521 296.228 81.6257 294.79C61.348 261.42 50.746 225.687 54.7603 186.362C57.0249 164.902 65.3624 146.317 83.7873 133.79C90.5809 129.272 98.4037 126.089 106.33 121.879ZM92.2278 122.496C91.3014 122.187 90.8897 121.982 90.5809 122.085C89.7574 122.187 88.831 122.29 88.1105 122.496C76.2732 126.192 65.6712 132.045 57.2307 141.08C34.2768 165.826 25.1158 195.397 27.6891 228.665C28.6155 241.192 35.5119 251.152 42.7172 260.906C43.026 260.085 42.9231 259.469 42.8202 258.853C37.3647 234.415 36.1295 209.772 41.3791 185.129C46.3199 161.924 56.3043 141.799 78.0231 129.683C82.4492 127.219 87.0811 125.062 92.2278 122.496ZM182.705 328.777C182.705 328.058 182.808 327.442 182.808 326.723C177.25 325.183 171.589 323.746 166.03 322.103C147.811 316.763 130.519 309.679 117.137 295.509C107.153 284.933 101.698 273.022 104.991 258.237C105.094 257.723 104.786 257.21 104.683 256.286C98.8155 264.397 98.4037 273.536 103.653 284.317C114.976 308.036 133.298 322.719 159.649 326.415C167.266 327.545 174.986 328.058 182.705 328.777Z" fill="#47473F"/>
<path d="M248.376 64.5848C271.33 64.5848 289.652 82.5536 289.755 105.348C289.961 127.835 271.227 146.522 248.479 146.522C225.731 146.522 207.1 128.143 206.997 105.554C206.997 82.9643 225.525 64.5848 248.376 64.5848V64.5848ZM92.7424 248.996C90.7866 234.621 93.257 221.17 101.286 209.054C106.741 200.737 114.461 195.705 124.857 196.219C134.739 196.732 140.4 206.076 136.386 214.906C133.298 221.58 123.725 223.121 118.681 217.576C114.255 212.75 111.579 212.442 106.844 217.165C99.433 224.661 95.2127 233.902 93.3599 244.17C93.257 245.915 93.0512 247.455 92.7424 248.996V248.996ZM130.724 115.616C147.502 115 164.383 126.192 168.089 140.362C170.456 149.397 167.471 157.304 160.472 160.589C154.399 163.464 147.605 161.616 144.209 156.174C140.503 150.321 141.841 142.826 147.4 138.821C153.37 134.406 153.781 132.25 148.017 127.527C142.768 123.009 136.695 119.518 130.724 115.616V115.616Z" fill="#47473F"/>
<path d="M169.839 157.304C169.942 168.906 163.972 177.223 154.502 183.076C145.855 188.415 136.694 188.723 127.739 183.795C122.387 180.92 119.505 176.196 119.608 170.036C119.814 162.848 125.475 157.817 132.886 158.33C140.091 158.741 143.797 163.464 142.973 171.165C142.562 175.786 144.311 177.531 149.046 176.402C159.443 173.732 165.516 166.545 169.839 157.304V157.304ZM135.768 196.219C151.311 197.554 165.516 216.446 162.222 230.719C160.575 238.009 154.605 243.143 148.017 243.143C140.915 243.143 135.871 238.625 135.356 231.746C134.739 224.455 138.444 220.143 146.164 219.116C150.59 218.5 151.723 216.549 149.973 211.929C147.914 206.487 144.209 202.277 135.768 196.219V196.219Z" fill="#47473F"/>
</svg>
